<svg id="Capa_1" enable-background="new 0 0 512 512" viewBox="0 0 512 512" xmlns="http://www.w3.org/2000/svg"><g><g><g><path d="m256 130.402c-8.926 0-16.163-7.236-16.163-16.163v-32.324c0-8.926 7.236-16.163 16.163-16.163 8.926 0 16.163 7.236 16.163 16.163v32.325c0 8.926-7.237 16.162-16.163 16.162z" fill="#e2dee2"/></g><g><path d="m208.857 149.93c-6.312 6.312-16.545 6.312-22.857 0l-22.857-22.857c-6.312-6.312-6.312-16.545 0-22.857 6.312-6.312 16.545-6.312 22.857 0l22.857 22.857c6.312 6.311 6.312 16.545 0 22.857z" fill="#cbc4cc"/></g><g><path d="m189.329 197.073c0 8.926-7.236 16.163-16.163 16.163h-32.325c-8.926 0-16.163-7.236-16.163-16.163 0-8.926 7.236-16.163 16.163-16.163h32.325c8.927.001 16.163 7.237 16.163 16.163z" fill="#b5adb6"/></g><g><path d="m208.857 244.216c6.312 6.312 6.312 16.546 0 22.857l-22.857 22.857c-6.312 6.312-16.545 6.312-22.857 0-6.312-6.312-6.312-16.545 0-22.857l22.857-22.857c6.311-6.311 16.545-6.311 22.857 0z" fill="#a79ba7"/></g><g><path d="m256 263.744c8.926 0 16.163 7.236 16.163 16.163v32.325c0 8.926-7.236 16.163-16.163 16.163-8.926 0-16.163-7.236-16.163-16.163v-32.325c0-8.927 7.237-16.163 16.163-16.163z" fill="#918291"/></g><g><path d="m303.143 244.216c6.312-6.312 16.546-6.312 22.857 0l22.857 22.857c6.312 6.312 6.312 16.545 0 22.857-6.312 6.312-16.545 6.312-22.857 0l-22.857-22.857c-6.312-6.311-6.312-16.545 0-22.857z" fill="#7a6d79"/></g><g><path d="m322.671 197.073c0-8.926 7.236-16.163 16.163-16.163h32.325c8.926 0 16.163 7.236 16.163 16.163 0 8.926-7.236 16.163-16.163 16.163h-32.325c-8.927 0-16.163-7.236-16.163-16.163z" fill="#685e68"/></g><g><path d="m303.143 149.93c-6.312-6.312-6.312-16.545 0-22.857l22.857-22.857c6.312-6.312 16.545-6.312 22.857 0 6.312 6.312 6.312 16.545 0 22.857l-22.857 22.857c-6.311 6.312-16.545 6.312-22.857 0z" fill="#554e56"/></g></g><g fill="#8ac9fe"><g><path d="m77.379 376.823c-19.14 0-34.711 15.571-34.711 34.711 0 19.141 15.571 34.712 34.711 34.712s34.711-15.571 34.711-34.712c0-19.14-15.571-34.711-34.711-34.711zm0 54.423c-10.869 0-19.711-8.843-19.711-19.712 0-10.868 8.842-19.711 19.711-19.711s19.711 8.843 19.711 19.711c0 10.869-8.842 19.712-19.711 19.712z"/><path d="m26.573 431.246h-11.573v-46.923c0-4.143-3.358-7.5-7.5-7.5s-7.5 3.357-7.5 7.5v54.423c0 4.143 3.358 7.5 7.5 7.5h19.073c4.142 0 7.5-3.357 7.5-7.5s-3.358-7.5-7.5-7.5z"/><path d="m338.621 376.823c-4.142 0-7.5 3.357-7.5 7.5v30.687l-24.498-34.895c-1.88-2.678-5.279-3.829-8.398-2.842-3.12.985-5.24 3.88-5.24 7.151v54.321c0 4.143 3.358 7.5 7.5 7.5s7.5-3.357 7.5-7.5v-30.585l24.498 34.895c1.431 2.038 3.741 3.191 6.139 3.191.752 0 1.514-.114 2.259-.35 3.12-.985 5.24-3.88 5.24-7.151v-54.423c0-4.141-3.358-7.499-7.5-7.499z"/><path d="m270.161 376.823c-4.142 0-7.5 3.357-7.5 7.5v54.423c0 4.143 3.358 7.5 7.5 7.5s7.5-3.357 7.5-7.5v-54.423c0-4.142-3.358-7.5-7.5-7.5z"/><path d="m158.457 382.439c-.026-.068-.053-.138-.082-.205-1.353-3.288-4.522-5.411-8.076-5.411-.002 0-.005 0-.007 0-3.557.003-6.727 2.132-8.075 5.424-.023.058-.046.115-.068.174l-20.436 53.656c-1.474 3.87.468 8.203 4.339 9.678.879.335 1.781.493 2.668.493 3.022 0 5.871-1.84 7.01-4.833l3.25-8.532h22.481l3.212 8.512c1.462 3.874 5.787 5.83 9.665 4.368 3.875-1.462 5.832-5.789 4.369-9.665zm-13.765 35.444 5.579-14.648 5.528 14.648z"/><path d="m217.92 376.823h-15.414c-1.992 0-3.902.792-5.309 2.202s-2.195 3.321-2.191 5.313l.11 54.423c.004 1.991.8 3.899 2.212 5.303 1.406 1.397 3.307 2.182 5.288 2.182h.028c.466-.002 11.461-.044 15.856-.121 16.744-.292 28.896-14.84 28.896-34.591.002-20.762-11.844-34.711-29.476-34.711zm.319 54.304c-1.883.033-5.105.061-8.137.08l-.08-39.384h7.898c13.434 0 14.478 15.087 14.478 19.711 0 13.364-7.111 19.47-14.159 19.593z"/><path d="m419.576 404.034h-16.28c-4.142 0-7.5 3.357-7.5 7.5s3.358 7.5 7.5 7.5h7.894c-2.332 8.864-8.889 12.212-15.104 12.212-10.869 0-19.711-8.843-19.711-19.712 0-10.868 8.842-19.711 19.711-19.711 3.951 0 7.76 1.162 11.015 3.361 3.433 2.32 8.095 1.417 10.414-2.015s1.417-8.095-2.015-10.413c-5.744-3.882-12.457-5.934-19.413-5.934-19.14 0-34.711 15.571-34.711 34.711 0 19.141 15.571 34.712 34.711 34.712 18.247 0 30.99-14.274 30.99-34.712-.001-4.141-3.359-7.499-7.501-7.499z"/></g><circle cx="444.03" cy="438.748" r="7.5"/><circle cx="474.265" cy="438.748" r="7.5"/><circle cx="504.5" cy="438.748" r="7.5"/></g></g><g/><g/><g/><g/><g/><g/><g/><g/><g/><g/><g/><g/><g/><g/><g/></svg>