<?xml version="1.0" encoding="UTF-8"?>
<svg id="_레이어_1" data-name="레이어 1" xmlns="http://www.w3.org/2000/svg" viewBox="0 0 596.41 132.64">
  <defs>
    <style>
      .cls-1 {
        fill: #ffbc00;
      }
    </style>
  </defs>
  <path class="cls-1" d="M0,105.62V40.72c0-11.38,3.41-20.48,10.22-27.32,6.81-6.84,15.88-10.25,27.21-10.25s19.91,3.32,25.89,9.96c5.98,6.64,8.97,16.19,8.97,28.64v63.87h-29.74v-63.87c0-6.1-2.17-9.16-6.52-9.16s-6.3,3.05-6.3,9.16v63.87H0Z"/>
  <path class="cls-1" d="M143.7,44.53v22.27h-19.41c-2.64,0-4.5.39-5.6,1.17-1.1.78-1.65,2.1-1.65,3.96,0,2.1.56,3.48,1.68,4.14,1.12.66,3.42.99,6.88.99h20v28.56h-23.36c-10.99,0-19.39-2.62-25.2-7.87-5.81-5.25-8.72-12.83-8.72-22.74v-39.18c0-9.57,2.75-16.99,8.24-22.27s13.22-7.91,23.18-7.91h25.85v28.71h-18.97c-5.13,0-7.69,1.66-7.69,4.98,0,1.95.61,3.31,1.83,4.06,1.22.76,3.39,1.14,6.52,1.14h16.41Z"/>
  <path class="cls-1" d="M215.99,44.53v22.27h-19.41c-2.64,0-4.5.39-5.6,1.17-1.1.78-1.65,2.1-1.65,3.96,0,2.1.56,3.48,1.68,4.14,1.12.66,3.42.99,6.88.99h20v28.56h-23.36c-10.99,0-19.39-2.62-25.2-7.87-5.81-5.25-8.72-12.83-8.72-22.74v-39.18c0-9.57,2.75-16.99,8.24-22.27s13.22-7.91,23.18-7.91h25.85v28.71h-18.97c-5.13,0-7.69,1.66-7.69,4.98,0,1.95.61,3.31,1.83,4.06,1.22.76,3.39,1.14,6.52,1.14h16.41Z"/>
  <path class="cls-1" d="M278.47,34.35v71.26h-29.74V34.35h-22.78V5.64h75.22v28.71h-22.71Z"/>
  <path class="cls-1" d="M344.75,31.05c10.35,0,19.23,3.72,26.62,11.17,7.4,7.45,11.1,16.37,11.1,26.77s-3.75,19.53-11.24,26.95c-7.5,7.42-16.54,11.13-27.14,11.13s-19.65-3.72-27.17-11.17c-7.52-7.45-11.28-16.42-11.28-26.92s3.76-19.69,11.28-26.99c7.52-7.3,16.8-10.95,27.83-10.95ZM344.02,58.08c-2.93,0-5.42,1.06-7.47,3.19s-3.08,4.72-3.08,7.8,1.04,5.62,3.11,7.76c2.07,2.15,4.55,3.22,7.43,3.22s5.43-1.07,7.51-3.22c2.07-2.15,3.11-4.74,3.11-7.76s-1.03-5.68-3.08-7.8-4.57-3.19-7.54-3.19Z"/>
  <path class="cls-1" d="M419.68,132.64h-27.39v-60.94c0-11.18,2.93-20.29,8.79-27.32,3.37-4.05,7.65-7.27,12.85-9.67,5.2-2.39,10.53-3.59,16-3.59,10.89,0,20.07,3.66,27.54,10.99s11.21,16.31,11.21,26.95-3.71,19.29-11.13,26.81c-7.42,7.52-16.21,11.28-26.37,11.28-1.66,0-4.1-.17-7.32-.51v-30.18c2.25,1.81,4.49,2.71,6.74,2.71,2.83,0,5.26-1.05,7.29-3.15,2.03-2.1,3.04-4.59,3.04-7.47s-1.05-5.33-3.15-7.36c-2.1-2.03-4.61-3.04-7.54-3.04-7.03,0-10.55,4.86-10.55,14.58v59.91Z"/>
  <path class="cls-1" d="M508.08,32.59v73.02h-27.39V32.59h27.39ZM494.46,0c3.71,0,6.92,1.31,9.63,3.92,2.71,2.61,4.06,5.7,4.06,9.27,0,3.81-1.28,6.93-3.85,9.38-2.56,2.44-5.85,3.66-9.85,3.66s-7.29-1.22-9.85-3.66c-2.56-2.44-3.85-5.57-3.85-9.38,0-3.56,1.35-6.65,4.06-9.27,2.71-2.61,5.92-3.92,9.63-3.92Z"/>
  <path class="cls-1" d="M564.77,78.22v28.34c-2.25.39-4.3.59-6.15.59-10.99,0-20.14-3.61-27.47-10.84-7.32-7.23-10.99-16.28-10.99-27.17s3.7-19.58,11.1-26.95c7.4-7.37,16.39-11.06,26.99-11.06,11.82,0,21.13,3.46,27.94,10.36,6.81,6.91,10.22,16.35,10.22,28.31v35.82h-27.39v-33.84c0-3.86-.94-6.93-2.82-9.23-1.88-2.29-4.41-3.44-7.58-3.44-2.88,0-5.37,1.05-7.47,3.15s-3.15,4.59-3.15,7.47c0,3.03.95,5.52,2.86,7.47,1.9,1.95,4.32,2.93,7.25,2.93,2.39,0,4.61-.63,6.67-1.9Z"/>
</svg>