<?xml version="1.0" encoding="UTF-8"?>
<svg id="_레이어_1" data-name="레이어 1" xmlns="http://www.w3.org/2000/svg" xmlns:xlink="http://www.w3.org/1999/xlink" viewBox="0 0 205.2 205.18">
  <defs>
    <style>
      .cls-1 {
        fill: #f1ce30;
      }

      .cls-1, .cls-2, .cls-3 {
        fill-rule: evenodd;
      }

      .cls-4 {
        fill: #5f85f7;
        stroke: #5f85f7;
        stroke-miterlimit: 10;
        stroke-width: 16px;
      }

      .cls-5 {
        font-family: HakgyoansimChilpanjiugaeTTF-B, 'Hakgyoansim Chilpanjiugae TTF';
      }

      .cls-5, .cls-6, .cls-2, .cls-7 {
        fill: #355dfa;
      }

      .cls-5, .cls-6, .cls-7 {
        font-size: 20.67px;
      }

      .cls-6 {
        font-family: Bauhaus93, 'Bauhaus 93';
      }

      .cls-8 {
        clip-rule: evenodd;
        fill: none;
      }

      .cls-7 {
        font-family: HakgyoansimChilpanjiugaeTTF-L, 'Hakgyoansim Chilpanjiugae TTF';
      }

      .cls-9 {
        fill: #f1cddc;
      }

      .cls-10 {
        clip-path: url(#clippath);
      }

      .cls-3 {
        fill: #dc4949;
      }
    </style>
    <clipPath id="clippath">
      <path class="cls-8" d="M73.53,93.7c7.61-2.13,7.46,13.08,21.47,19.93,11.8,5.77,28.92,1.71,30.11,9.56,1.89,12.46-24.4,20.77-41.3,11.19-21.58-12.23-16.36-38.98-10.27-40.69Z"/>
    </clipPath>
  </defs>
  <ellipse class="cls-4" cx="102.6" cy="102.59" rx="94.6" ry="94.59"/>
  <g>
    <ellipse class="cls-9" cx="102.6" cy="102.59" rx="94.6" ry="94.59"/>
    <text class="cls-7" transform="translate(41.1 135.16) rotate(-112.04) skewX(-.08)"><tspan x="0" y="0">니</tspan></text>
    <text class="cls-7" transform="translate(35.95 122.12) rotate(-101.9) skewX(-.09)"><tspan x="0" y="0">트</tspan></text>
    <text class="cls-7" transform="translate(33.72 111.96) rotate(-92.89) skewX(-.09)"><tspan x="0" y="0">들</tspan></text>
    <text class="cls-7" transform="translate(33.01 100.54) rotate(-82.58) skewX(-.08)"><tspan x="0" y="0">의</tspan></text>
    <text class="cls-7" transform="translate(34.94 87.41) rotate(-74.44) skewX(-.06)"><tspan x="0" y="0"> </tspan></text>
    <text class="cls-7" transform="translate(36.34 81.41) rotate(-66.48) skewX(-.04)"><tspan x="0" y="0">이</tspan></text>
    <text class="cls-7" transform="translate(41.12 69.62) rotate(-54.09)"><tspan x="0" y="0">상</tspan></text>
    <text class="cls-7" transform="translate(51.3 55.68) rotate(-40.98) skewX(.04)"><tspan x="0" y="0">적</tspan></text>
    <text class="cls-7" transform="translate(62.36 46.07) rotate(-29.36) skewX(.07)"><tspan x="0" y="0">인</tspan></text>
    <text class="cls-7" transform="translate(74.33 39.6) rotate(-21.17) skewX(.08)"><tspan x="0" y="0"> </tspan></text>
    <text class="cls-7" transform="translate(79.82 36.92) rotate(-11.51) skewX(.09)"><tspan x="0" y="0">삶</tspan></text>
    <text class="cls-7" transform="translate(96.85 33.69) rotate(.15) skewX(.09)"><tspan x="0" y="0">을</tspan></text>
    <text class="cls-7" transform="translate(108.41 33.86) rotate(7.48) skewX(.08)"><tspan x="0" y="0"> </tspan></text>
    <text class="cls-7" transform="translate(114.53 34.23) rotate(16.6) skewX(.06)"><tspan x="0" y="0">위</tspan></text>
    <text class="cls-7" transform="translate(129.66 38.63) rotate(29.74) skewX(.02)"><tspan x="0" y="0">한</tspan></text>
    <text class="cls-7" transform="translate(143.73 47.1) rotate(38.97)"><tspan x="0" y="0"> </tspan></text>
    <text class="cls-7" transform="translate(148.72 50.67) rotate(47.56) skewX(-.04)"><tspan x="0" y="0">서</tspan></text>
    <text class="cls-7" transform="translate(158.58 61.4) rotate(59.41) skewX(-.07)"><tspan x="0" y="0">비</tspan></text>
    <text class="cls-7" transform="translate(165.63 73.54) rotate(69.62) skewX(-.08)"><tspan x="0" y="0">스</tspan></text>
    <text class="cls-7" transform="translate(169.18 83.4) rotate(76.57) skewX(-.09)"><tspan x="0" y="0"> </tspan></text>
    <text class="cls-6" transform="translate(170.81 89.36) rotate(83.91) skewX(-.09)"><tspan x="0" y="0">N</tspan></text>
    <text class="cls-6" transform="translate(172 100.9) rotate(92.66) skewX(-.08)"><tspan x="0" y="0">E</tspan></text>
    <text class="cls-6" transform="translate(171.59 110.35) rotate(100.61) skewX(-.07)"><tspan x="0" y="0">E</tspan></text>
    <text class="cls-6" transform="translate(169.91 119.63) rotate(108.8) skewX(-.05)"><tspan x="0" y="0">T</tspan></text>
    <text class="cls-6" transform="translate(166.72 129.21) rotate(117.57) skewX(-.03)"><tspan x="0" y="0">o</tspan></text>
    <text class="cls-6" transform="translate(161.7 138.95) rotate(126.79)"><tspan x="0" y="0">p</tspan></text>
    <text class="cls-6" transform="translate(154.7 148.05) rotate(133.83) skewX(.02)"><tspan x="0" y="0">i</tspan></text>
    <text class="cls-6" transform="translate(151 152.22) rotate(140.94) skewX(.04)"><tspan x="0" y="0">a</tspan></text>
    <text class="cls-6" transform="translate(141.83 159.43) rotate(147.75) skewX(.06)"><tspan x="0" y="0"> </tspan></text>
    <text class="cls-5" transform="translate(138.01 162.22) rotate(155.37) skewX(.08)"><tspan x="0" y="0">인</tspan></text>
    <text class="cls-5" transform="translate(125.7 167.81) rotate(165.67) skewX(.09)"><tspan x="0" y="0">증</tspan></text>
    <g>
      <path class="cls-1" d="M102.6,44.59c32.01,0,58,25.99,58,58s-25.99,58-58,58-58-25.99-58-58,25.99-58,58-58Z"/>
      <path class="cls-2" d="M102.6,48.59c29.8,0,54,24.2,54,54s-24.2,54-54,54-54-24.2-54-54,24.2-54,54-54ZM102.6,40.59c-34.22,0-62,27.78-62,62s27.78,62,62,62,62-27.78,62-62-27.78-62-62-62Z"/>
      <path class="cls-2" d="M82.34,85c2.32-1.22,5.26-1.11,7.82-.17,2.48.92,4.69,2.65,5.51,5.1l1.26,3.79,7.59-2.53-1.26-3.8c-1.57-4.71-5.55-8.31-10.32-10.08-4.69-1.73-10.06-1.65-14.32.59l-3.54,1.86,3.72,7.08,3.54-1.86Z"/>
      <path class="cls-2" d="M133.12,89.23c3.07,1.48,3.2,7.59.3,13.64-2.91,6.05-7.76,9.77-10.83,8.29-3.07-1.48-3.2-7.59-.3-13.64,2.91-6.05,7.76-9.77,10.83-8.29Z"/>
      <path class="cls-2" d="M73.53,93.7c7.61-2.13,7.46,13.08,21.47,19.93,11.8,5.77,28.92,1.71,30.11,9.56,1.89,12.46-24.4,20.77-41.3,11.19-21.58-12.23-16.36-38.98-10.27-40.69Z"/>
      <g class="cls-10">
        <path class="cls-3" d="M61.26,114.41c3.25-2.38,8.68-1.09,12.26-.28,6.95,1.57,12.73,4.48,17.11,10.21,1.63,2.13,2.82,4.44,3.77,6.95,1.54,4.08,1.81,9.54-2.9,11.52-.89.38-1.24.53-2.2.7-1.5.27-3.07.27-4.58.09-3.76-.45-7.23-2.85-9.96-5.34-2.88-2.62-5.12-5.96-7.25-9.19"/>
      </g>
    </g>
  </g>
</svg>