<svg xmlns="http://www.w3.org/2000/svg" version="1.1" xmlns:xlink="http://www.w3.org/1999/xlink" width="512" height="512" x="0" y="0" viewBox="0 0 31 31" style="enable-background:new 0 0 512 512" xml:space="preserve" class=""><g><path d="M31 15.5a4.473 4.473 0 0 1-1.318 3.182l-1.904 1.904v2.691c0 2.48-2.019 4.5-4.498 4.5h-2.692l-1.903 1.904C17.833 30.531 16.703 31 15.5 31s-2.333-.469-3.184-1.32l-1.901-1.899H7.723a4.481 4.481 0 0 1-3.183-1.318 4.469 4.469 0 0 1-1.317-3.182v-2.694l-1.904-1.902C.469 17.833 0 16.702 0 15.5s.469-2.333 1.318-3.182l1.904-1.903V7.724c0-2.481 2.019-4.5 4.498-4.5h2.692l1.905-1.905C13.167.469 14.297 0 15.5 0s2.333.469 3.184 1.32l1.901 1.901h2.692c1.201 0 2.332.468 3.182 1.317a4.468 4.468 0 0 1 1.318 3.183v2.692l1.904 1.904A4.474 4.474 0 0 1 31 15.5z" fill="#ff3737" opacity="1" data-original="#000000" class=""></path></g></svg>